<?xml version="1.0" encoding="UTF-8" standalone="no"?>
<svg
   viewBox="0 0 40 40"
   version="1.1"
   id="svg26"
   sodipodi:docname="submitserverplugin-logo-ij.svg"
   width="40"
   height="40"
   inkscape:version="1.1.2 (0a00cf5339, 2022-02-04)"
   xmlns:inkscape="http://www.inkscape.org/namespaces/inkscape"
   xmlns:sodipodi="http://sodipodi.sourceforge.net/DTD/sodipodi-0.dtd"
   xmlns:xlink="http://www.w3.org/1999/xlink"
   xmlns="http://www.w3.org/2000/svg"
   xmlns:svg="http://www.w3.org/2000/svg"
   xmlns:bx="https://boxy-svg.com">
  <sodipodi:namedview
     id="namedview28"
     pagecolor="#ffffff"
     bordercolor="#666666"
     borderopacity="1.0"
     inkscape:pageshadow="2"
     inkscape:pageopacity="0.0"
     inkscape:pagecheckerboard="0"
     showgrid="true"
     width="40px"
     inkscape:zoom="13.03063"
     inkscape:cx="50.918489"
     inkscape:cy="18.609998"
     inkscape:window-width="1920"
     inkscape:window-height="1053"
     inkscape:window-x="0"
     inkscape:window-y="40"
     inkscape:window-maximized="1"
     inkscape:current-layer="svg26">
    <inkscape:grid
       type="xygrid"
       id="grid30" />
  </sodipodi:namedview>
  <defs
     id="defs10">
    <linearGradient
       gradientUnits="userSpaceOnUse"
       x1="249.696"
       y1="41.616001"
       x2="249.696"
       y2="457.776"
       id="gradient-2-0"
       xlink:href="#gradient-2"
       gradientTransform="matrix(0.08522451,0,0,0.08522451,-1.2544224,-1.328848)" />
    <linearGradient
       id="gradient-2"
       bx:pinned="true">
      <title
         id="title3">Blue Cool</title>
      <stop
         offset="0"
         style="stop-color: rgb(0, 188, 212);"
         id="stop5" />
      <stop
         offset="1"
         style="stop-color: rgb(3, 169, 244);"
         id="stop7" />
    </linearGradient>
  </defs>
  <rect
     style="fill:url(#gradient-2-0);stroke:#00bcd4;stroke-width:0px"
     x="2.2922938"
     y="2.2178686"
     width="35.467033"
     height="35.467033"
     rx="2.9828577"
     ry="2.9828577"
     id="rect12" />
  <g
     transform="matrix(0.09039899,0,0,0.09039899,-2.5010776,-2.5454253)"
     id="g18">
    <path
       d="m 107.903,259.274 v 77.067 l 67.39,39.476 67.389,39.474 h 0.669 0.667 l -0.349,-34.9 -0.348,-34.9 -37.289,-21.85 -37.289,-21.85 -0.391,-8.862 -0.392,-8.861 3.008,1.939 3.008,1.939 32.965,19.2 32.965,19.202 2.034,0.78 2.035,0.781 -0.028,-33.177 -0.027,-33.176 -66.295,-39.252 -66.295,-39.251 -1.714,-0.848 -1.828,-0.885 0.115,77.954"
       stroke="none"
       fill-rule="evenodd"
       style="fill-opacity:0.13;stroke-width:0px;stroke-opacity:0"
       id="path14" />
    <path
       d="m 182.188,127.291 -70.29,44.135 -0.717,0.717 -0.717,0.717 69.48,40.814 69.479,40.814 33.583,-18.363 33.584,-18.364 0.406,6.031 0.405,6.03 -0.621,1.619 -0.622,1.619 -29.877,17.351 -29.877,17.352 -0.605,0.556 -0.607,0.554 -0.424,72.714 -0.424,72.713 1.863,-0.716 1.862,-0.714 63.604,-43.602 63.603,-43.602 0.003,-78.681 10e-4,-78.68 -27.484,-17.159 -27.484,-17.158 h -0.81 -0.808 l -32.703,19.82 -32.704,19.819 -6.429,-3.147 -6.426,-3.148 33.447,-20.773 33.449,-20.774 -0.369,-0.291 -0.369,-0.29 -30.395,-21.121 -30.395,-21.122 -1.66,0.097 -1.661,0.097 -70.291,44.136"
       stroke="none"
       fill-rule="evenodd"
       style="fill-opacity:0.13;stroke-width:0px;stroke-opacity:0"
       id="path16" />
  </g>
  <g
     id="g24"
     transform="matrix(0.08522451,0,0,0.08522451,-1.2544225,-1.3288482)">
    <path
       d="m 107.903,259.274 v 77.067 l 67.39,39.476 67.389,39.474 h 0.669 0.667 l -0.349,-34.9 -0.348,-34.9 -37.289,-21.85 -37.289,-21.85 -0.391,-8.862 -0.392,-8.861 3.008,1.939 3.008,1.939 32.965,19.2 32.965,19.202 2.034,0.78 2.035,0.781 -0.028,-33.177 -0.027,-33.176 -66.295,-39.252 -66.295,-39.251 -1.714,-0.848 -1.828,-0.885 0.115,77.954"
       stroke="none"
       fill="#ea1d25"
       fill-rule="evenodd"
       id="path20" />
    <path
       d="m 182.188,127.291 -70.29,44.135 -0.717,0.717 -0.717,0.717 69.48,40.814 69.479,40.814 33.583,-18.363 33.584,-18.364 0.406,6.031 0.405,6.03 -0.621,1.619 -0.622,1.619 -29.877,17.351 -29.877,17.352 -0.605,0.556 -0.607,0.554 -0.424,72.714 -0.424,72.713 1.863,-0.716 1.862,-0.714 63.604,-43.602 63.603,-43.602 0.003,-78.681 10e-4,-78.68 -27.484,-17.159 -27.484,-17.158 h -0.81 -0.808 l -32.703,19.82 -32.704,19.819 -6.429,-3.147 -6.426,-3.148 33.447,-20.773 33.449,-20.774 -0.369,-0.291 -0.369,-0.29 -30.395,-21.121 -30.395,-21.122 -1.66,0.097 -1.661,0.097 -70.291,44.136"
       stroke="none"
       fill="#241c23"
       fill-rule="evenodd"
       id="path22" />
  </g>
</svg>
