<?xml version="1.0" encoding="utf-8"?>
<svg viewBox="0 0 500 500" xmlns="http://www.w3.org/2000/svg" xmlns:xlink="http://www.w3.org/1999/xlink" xmlns:bx="https://boxy-svg.com">
  <defs>
    <linearGradient gradientUnits="userSpaceOnUse" x1="249.696" y1="41.616" x2="249.696" y2="457.776" id="gradient-2-0" xlink:href="#gradient-2"/>
    <linearGradient id="gradient-2" bx:pinned="true">
      <title>Blue Cool</title>
      <stop offset="0" style="stop-color: rgb(0, 188, 212);"/>
      <stop offset="1" style="stop-color: rgb(3, 169, 244);"/>
    </linearGradient>
  </defs>
  <rect style="stroke: rgb(0, 188, 212); stroke-width: 0px; fill: url('#gradient-2-0');" x="41.616" y="41.616" width="416.16" height="416.16" rx="35" ry="35" transform="matrix(0.9999999999999999, 0, 0, 0.9999999999999999, -5.684341886080802e-14, 0)"/>
  <g transform="matrix(1.0607160329818726, 0, 0, 1.0607160329818726, -14.628034809649535, -14.275037978217568)" style="">
    <path d="M 107.903 259.274 L 107.903 336.341 L 175.293 375.817 L 242.682 415.291 L 243.351 415.291 L 244.018 415.291 L 243.669 380.391 L 243.321 345.491 L 206.032 323.641 L 168.743 301.791 L 168.352 292.929 L 167.96 284.068 L 170.968 286.007 L 173.976 287.946 L 206.941 307.146 L 239.906 326.348 L 241.94 327.128 L 243.975 327.909 L 243.947 294.732 L 243.92 261.556 L 177.625 222.304 L 111.33 183.053 L 109.616 182.205 L 107.788 181.32 L 107.903 259.274" stroke="none" fill-rule="evenodd" style="stroke-width: 0px; stroke-opacity: 0; fill-opacity: 0.13;"/>
    <path d="M 182.188 127.291 L 111.898 171.426 L 111.181 172.143 L 110.464 172.86 L 179.944 213.674 L 249.423 254.488 L 283.006 236.125 L 316.59 217.761 L 316.996 223.792 L 317.401 229.822 L 316.78 231.441 L 316.158 233.06 L 286.281 250.411 L 256.404 267.763 L 255.799 268.319 L 255.192 268.873 L 254.768 341.587 L 254.344 414.3 L 256.207 413.584 L 258.069 412.87 L 321.673 369.268 L 385.276 325.666 L 385.279 246.985 L 385.28 168.305 L 357.796 151.146 L 330.312 133.988 L 329.502 133.988 L 328.694 133.988 L 295.991 153.808 L 263.287 173.627 L 256.858 170.48 L 250.432 167.332 L 283.879 146.559 L 317.328 125.785 L 316.959 125.494 L 316.59 125.204 L 286.195 104.083 L 255.8 82.961 L 254.14 83.058 L 252.479 83.155 L 182.188 127.291" stroke="none" fill-rule="evenodd" style="stroke-width: 0px; stroke-opacity: 0; fill-opacity: 0.13;"/>
  </g>
  <g transform="matrix(0.9999999999999999, 0, 0, 0.9999999999999999, -5.684341886080802e-14, 0)">
    <path d="M 107.903 259.274 L 107.903 336.341 L 175.293 375.817 L 242.682 415.291 L 243.351 415.291 L 244.018 415.291 L 243.669 380.391 L 243.321 345.491 L 206.032 323.641 L 168.743 301.791 L 168.352 292.929 L 167.96 284.068 L 170.968 286.007 L 173.976 287.946 L 206.941 307.146 L 239.906 326.348 L 241.94 327.128 L 243.975 327.909 L 243.947 294.732 L 243.92 261.556 L 177.625 222.304 L 111.33 183.053 L 109.616 182.205 L 107.788 181.32 L 107.903 259.274" stroke="none" fill="#ea1d25" fill-rule="evenodd" style=""/>
    <path d="M 182.188 127.291 L 111.898 171.426 L 111.181 172.143 L 110.464 172.86 L 179.944 213.674 L 249.423 254.488 L 283.006 236.125 L 316.59 217.761 L 316.996 223.792 L 317.401 229.822 L 316.78 231.441 L 316.158 233.06 L 286.281 250.411 L 256.404 267.763 L 255.799 268.319 L 255.192 268.873 L 254.768 341.587 L 254.344 414.3 L 256.207 413.584 L 258.069 412.87 L 321.673 369.268 L 385.276 325.666 L 385.279 246.985 L 385.28 168.305 L 357.796 151.146 L 330.312 133.988 L 329.502 133.988 L 328.694 133.988 L 295.991 153.808 L 263.287 173.627 L 256.858 170.48 L 250.432 167.332 L 283.879 146.559 L 317.328 125.785 L 316.959 125.494 L 316.59 125.204 L 286.195 104.083 L 255.8 82.961 L 254.14 83.058 L 252.479 83.155 L 182.188 127.291" stroke="none" fill="#241c23" fill-rule="evenodd" style=""/>
  </g>
</svg>